<?xml version="1.0" encoding="utf-8"?>
<!-- Svg Vector Icons : http://www.onlinewebfonts.com/icon -->
<!DOCTYPE svg PUBLIC "-//W3C//DTD SVG 1.1//EN" "http://www.w3.org/Graphics/SVG/1.1/DTD/svg11.dtd">
<svg version="1.1" xmlns="http://www.w3.org/2000/svg" xmlns:xlink="http://www.w3.org/1999/xlink" x="0px" y="0px" viewBox="0 0 1000 1000" enable-background="new 0 0 1000 1000" xml:space="preserve">
<metadata> Svg Vector Icons : http://www.onlinewebfonts.com/icon </metadata>
<g><g transform="translate(0.000000,512.000000) scale(0.100000,-0.100000)"><path d="M4739.5,4996c-467.9-99.7-840-477.5-937.8-953.1c-38.4-184.1-38.4-303,0-489c57.5-287.7,232.1-563.8,460.3-728.8l122.7-90.1v-387.4v-389.3h-491c-548.5,0-579.2-5.8-675.1-130.4c-71-92.1-72.9-251.2-5.8-347.1c90.1-124.7,143.8-136.2,688.5-136.2h483.3V218.9c0-1334.8-23-1670.4-153.4-2182.4c-111.2-441.1-304.9-700-525.5-700c-201.4,0-1010.7,450.7-1469,817c-218.6,174.5-598.3,554.2-755.6,755.6l-128.5,163l78.6,23c138.1,40.3,519.7,97.8,811.2,122.7c155.3,13.4,281.9,28.8,281.9,34.5c0,28.8-218.6,299.2-364.4,450.7c-314.5,327.9-709.6,604.1-1237,866.8l-326,163l-34.5-42.2c-113.2-138.1-272.3-504.4-349-792C127.2-437,100.4-695.9,100.4-1209.9c-1.9-258.9,3.8-477.5,9.6-485.2c7.7-5.8,101.6,57.5,211,143.8c109.3,86.3,303,226.3,427.7,310.7l230.1,153.4l53.7-205.2c86.3-333.7,163-540.8,314.5-843.8c339.4-690.4,809.3-1158.3,1543.8-1541.9c239.7-124.7,514-241.6,995.3-421.9c174.5-65.2,429.6-174.5,569.6-241.6c205.2-99.7,274.2-145.7,375.9-243.6c67.1-67.1,134.2-138.1,145.8-159.2l21.1-38.3l21.1,38.3c44.1,74.8,241.7,253.2,358.6,322.2c155.3,92,308.8,157.3,838.1,362.5c922.4,356.7,1321.3,579.2,1737.5,970.4c494.8,466,863,1131.5,1024.1,1858.3c30.7,134.2,32.6,138.1,72.9,117c86.3-44.1,433.4-287.7,625.2-437.3c109.3-86.3,203.3-149.6,210.9-143.8c26.8,28.8,9.6,958.9-23,1179.4c-42.2,278.1-124.6,598.3-209,795.9c-65.2,151.5-212.9,420-241.6,439.2c-23,13.4-521.6-234-751.8-372c-429.6-258.9-763.3-544.6-1039.4-887.9c-82.5-103.6-149.6-193.7-149.6-203.3c0-7.7,126.6-25,283.8-38.4c289.6-25,671.2-82.5,809.3-122.7l76.7-23l-138.1-172.6c-479.4-598.3-1212-1154.5-1946.5-1476.7c-218.6-95.9-297.3-105.5-404.6-49.9c-247.4,126.6-402.7,514-491,1219.7c-55.6,437.2-69,770.9-69,1760.5v991.5h494.8c473.7,0,498.6,1.9,579.2,44.1c166.8,82.5,218.6,299.2,107.4,444.9c-90.1,118.9-126.6,124.7-680.8,124.7h-500.5l1.9,216.7c1.9,117,7.7,293.4,15.3,391.2l11.5,174.5l118.9,88.2c287.7,211,485.2,607.9,485.2,970.4c0,53.7-13.4,164.9-30.7,245.5C6058.9,4710.3,5406.9,5136,4739.5,4996z M5263,4338.2c172.6-88.2,297.2-258.9,326-446.8c57.5-383.6-214.8-705.7-598.4-705.7c-184.1,0-289.6,44.1-425.7,180.3c-134.2,136.2-180.3,241.6-180.3,423.8c0,182.2,46,287.7,180.3,423.8c149.6,149.6,234,182.2,452.6,174.5C5140.3,4382.3,5201.7,4370.8,5263,4338.2z"/></g></g>
</svg>