<svg id="eXskjKcEtDO1" xmlns="http://www.w3.org/2000/svg" xmlns:xlink="http://www.w3.org/1999/xlink" viewBox="0 0 270 480" shape-rendering="geometricPrecision" text-rendering="geometricPrecision"><g transform="matrix(6.134977 0 0 6.134977-953.955798-1397.191294)"><path d="M163.99739,287.275393c0-9.83759,0-20.187159,0-31.048696s4.66841-20.009922,14.00522-27.445147h.25551c9.33681,7.435225,14.00521,16.583611,14.00521,27.445147s0,21.211106,0,31.048696c0,7.635567-1.50888,13.137616-4.52665,16.506157-6.48938,0-12.89359,0-19.21264,0-2.837462-3.379252-4.52665-8.856697-4.52665-16.506157Z" transform="matrix(.884427 0 0 1 19.95628 0.580299)" fill="#d3d1d1" fill-opacity="0.8" stroke="#ed4545" stroke-width="1.28"/><rect width="34" height="5" rx="0" ry="0" transform="translate(160.49958 290.003328)" fill="#fff" stroke="#000" stroke-width="0.7" stroke-linejoin="round"/><g transform="translate(0-3)"><g transform="translate(-.50042 0.332825)"><rect width="4" height="10" rx="0" ry="0" transform="translate(168 250)" fill="#05f" stroke="#fff" stroke-width="0.1"/><line x1="-2" y1="0" x2="2" y2="0" transform="translate(170 252)" fill="none" stroke="#fff" stroke-width="0.1"/><line x1="-2" y1="0" x2="2" y2="0" transform="translate(170 254)" fill="none" stroke="#fff" stroke-width="0.1"/><line x1="-2" y1="0" x2="2" y2="0" transform="translate(170 256)" fill="none" stroke="#fff" stroke-width="0.1"/><line x1="-2" y1="0" x2="2" y2="0" transform="translate(170 258)" fill="none" stroke="#fff" stroke-width="0.1"/></g><g transform="translate(3.49958 0.332825)"><rect width="4" height="10" rx="0" ry="0" transform="translate(168 250)" fill="#f00" stroke="#fff" stroke-width="0.1"/><line x1="-2" y1="0" x2="2" y2="0" transform="translate(170 252)" fill="none" stroke="#fff" stroke-width="0.1"/><line x1="-2" y1="0" x2="2" y2="0" transform="translate(170 254)" fill="none" stroke="#fff" stroke-width="0.1"/><line x1="-2" y1="0" x2="2" y2="0" transform="translate(170 256)" fill="none" stroke="#fff" stroke-width="0.1"/><line x1="-2" y1="0" x2="2" y2="0" transform="translate(170 258)" fill="none" stroke="#fff" stroke-width="0.1"/></g><g transform="translate(7.49958 0.332825)"><rect width="4" height="10" rx="0" ry="0" transform="translate(168 250)" fill="#16ff00" stroke="#fff" stroke-width="0.1"/><line x1="-2" y1="0" x2="2" y2="0" transform="translate(170 252)" fill="none" stroke="#fff" stroke-width="0.1"/><line x1="-2" y1="0" x2="2" y2="0" transform="translate(170 254)" fill="none" stroke="#fff" stroke-width="0.1"/><line x1="-2" y1="0" x2="2" y2="0" transform="translate(170 256)" fill="none" stroke="#fff" stroke-width="0.1"/><line x1="-2" y1="0" x2="2" y2="0" transform="translate(170 258)" fill="none" stroke="#fff" stroke-width="0.1"/></g><g transform="translate(11.49958 0.332825)"><rect width="4" height="10" rx="0" ry="0" transform="translate(168 250)" fill="#ff6a00" stroke="#fff" stroke-width="0.1"/><line x1="-2" y1="0" x2="2" y2="0" transform="translate(170 252)" fill="none" stroke="#fff" stroke-width="0.1"/><line x1="-2" y1="0" x2="2" y2="0" transform="translate(170 254)" fill="none" stroke="#fff" stroke-width="0.1"/><line x1="-2" y1="0" x2="2" y2="0" transform="translate(170 256)" fill="none" stroke="#fff" stroke-width="0.1"/><line x1="-2" y1="0" x2="2" y2="0" transform="translate(170 258)" fill="none" stroke="#fff" stroke-width="0.1"/></g><g transform="translate(15.49958 0.332825)"><rect width="4" height="10" rx="0" ry="0" transform="translate(168 250)" fill="#ffe000" stroke="#fff" stroke-width="0.1"/><line x1="-2" y1="0" x2="2" y2="0" transform="translate(170 252)" fill="none" stroke="#fff" stroke-width="0.1"/><line x1="-2" y1="0" x2="2" y2="0" transform="translate(170 254)" fill="none" stroke="#fff" stroke-width="0.1"/><line x1="-2" y1="0" x2="2" y2="0" transform="translate(170 256)" fill="none" stroke="#fff" stroke-width="0.1"/><line x1="-2" y1="0" x2="2" y2="0" transform="translate(170 258)" fill="none" stroke="#fff" stroke-width="0.1"/></g></g><g transform="translate(0 7)"><g transform="translate(-.50042 0.332825)"><rect width="4" height="10" rx="0" ry="0" transform="translate(168 250)" fill="#cfff00" stroke="#fff" stroke-width="0.1"/><line x1="-2" y1="0" x2="2" y2="0" transform="translate(170 252)" fill="none" stroke="#fff" stroke-width="0.1"/><line x1="-2" y1="0" x2="2" y2="0" transform="translate(170 254)" fill="none" stroke="#fff" stroke-width="0.1"/><line x1="-2" y1="0" x2="2" y2="0" transform="translate(170 256)" fill="none" stroke="#fff" stroke-width="0.1"/><line x1="-2" y1="0" x2="2" y2="0" transform="translate(170 258)" fill="none" stroke="#fff" stroke-width="0.1"/></g><g transform="translate(3.49958 0.332825)"><rect width="4" height="10" rx="0" ry="0" transform="translate(168 250)" fill="#ff7d00" stroke="#fff" stroke-width="0.1"/><line x1="-2" y1="0" x2="2" y2="0" transform="translate(170 252)" fill="none" stroke="#fff" stroke-width="0.1"/><line x1="-2" y1="0" x2="2" y2="0" transform="translate(170 254)" fill="none" stroke="#fff" stroke-width="0.1"/><line x1="-2" y1="0" x2="2" y2="0" transform="translate(170 256)" fill="none" stroke="#fff" stroke-width="0.1"/><line x1="-2" y1="0" x2="2" y2="0" transform="translate(170 258)" fill="none" stroke="#fff" stroke-width="0.1"/></g><g transform="translate(7.49958 0.332825)"><rect width="4" height="10" rx="0" ry="0" transform="translate(168 250)" fill="#1d00ff" stroke="#fff" stroke-width="0.1"/><line x1="-2" y1="0" x2="2" y2="0" transform="translate(170 252)" fill="none" stroke="#fff" stroke-width="0.1"/><line x1="-2" y1="0" x2="2" y2="0" transform="translate(170 254)" fill="none" stroke="#fff" stroke-width="0.1"/><line x1="-2" y1="0" x2="2" y2="0" transform="translate(170 256)" fill="none" stroke="#fff" stroke-width="0.1"/><line x1="-2" y1="0" x2="2" y2="0" transform="translate(170 258)" fill="none" stroke="#fff" stroke-width="0.1"/></g><g transform="translate(11.49958 0.332825)"><rect width="4" height="10" rx="0" ry="0" transform="translate(168 250)" fill="#f00" stroke="#fff" stroke-width="0.1"/><line x1="-2" y1="0" x2="2" y2="0" transform="translate(170 252)" fill="none" stroke="#fff" stroke-width="0.1"/><line x1="-2" y1="0" x2="2" y2="0" transform="translate(170 254)" fill="none" stroke="#fff" stroke-width="0.1"/><line x1="-2" y1="0" x2="2" y2="0" transform="translate(170 256)" fill="none" stroke="#fff" stroke-width="0.1"/><line x1="-2" y1="0" x2="2" y2="0" transform="translate(170 258)" fill="none" stroke="#fff" stroke-width="0.1"/></g><g transform="translate(15.49958 0.332825)"><rect width="4" height="10" rx="0" ry="0" transform="translate(168 250)" fill="#00ffc4" stroke="#fff" stroke-width="0.1"/><line x1="-2" y1="0" x2="2" y2="0" transform="translate(170 252)" fill="none" stroke="#fff" stroke-width="0.1"/><line x1="-2" y1="0" x2="2" y2="0" transform="translate(170 254)" fill="none" stroke="#fff" stroke-width="0.1"/><line x1="-2" y1="0" x2="2" y2="0" transform="translate(170 256)" fill="none" stroke="#fff" stroke-width="0.1"/><line x1="-2" y1="0" x2="2" y2="0" transform="translate(170 258)" fill="none" stroke="#fff" stroke-width="0.1"/></g></g><g transform="translate(0 18)"><g transform="translate(-.50042 0.332825)"><rect width="4" height="10" rx="0" ry="0" transform="translate(168 250)" fill="#f00" stroke="#fff" stroke-width="0.1"/><line x1="-2" y1="0" x2="2" y2="0" transform="translate(170 252)" fill="none" stroke="#fff" stroke-width="0.1"/><line x1="-2" y1="0" x2="2" y2="0" transform="translate(170 254)" fill="none" stroke="#fff" stroke-width="0.1"/><line x1="-2" y1="0" x2="2" y2="0" transform="translate(170 256)" fill="none" stroke="#fff" stroke-width="0.1"/><line x1="-2" y1="0" x2="2" y2="0" transform="translate(170 258)" fill="none" stroke="#fff" stroke-width="0.1"/></g><g transform="translate(3.49958 0.332825)"><rect width="4" height="10" rx="0" ry="0" transform="translate(168 250)" fill="#fd00ff" stroke="#fff" stroke-width="0.1"/><line x1="-2" y1="0" x2="2" y2="0" transform="translate(170 252)" fill="none" stroke="#fff" stroke-width="0.1"/><line x1="-2" y1="0" x2="2" y2="0" transform="translate(170 254)" fill="none" stroke="#fff" stroke-width="0.1"/><line x1="-2" y1="0" x2="2" y2="0" transform="translate(170 256)" fill="none" stroke="#fff" stroke-width="0.1"/><line x1="-2" y1="0" x2="2" y2="0" transform="translate(170 258)" fill="none" stroke="#fff" stroke-width="0.1"/></g><g transform="translate(7.49958 0.332825)"><rect width="4" height="10" rx="0" ry="0" transform="translate(168 250)" fill="#0067ff" stroke="#fff" stroke-width="0.1"/><line x1="-2" y1="0" x2="2" y2="0" transform="translate(170 252)" fill="none" stroke="#fff" stroke-width="0.1"/><line x1="-2" y1="0" x2="2" y2="0" transform="translate(170 254)" fill="none" stroke="#fff" stroke-width="0.1"/><line x1="-2" y1="0" x2="2" y2="0" transform="translate(170 256)" fill="none" stroke="#fff" stroke-width="0.1"/><line x1="-2" y1="0" x2="2" y2="0" transform="translate(170 258)" fill="none" stroke="#fff" stroke-width="0.1"/></g><g transform="translate(11.49958 0.332825)"><rect width="4" height="10" rx="0" ry="0" transform="translate(168 250)" fill="#00f2ff" stroke="#fff" stroke-width="0.1"/><line x1="-2" y1="0" x2="2" y2="0" transform="translate(170 252)" fill="none" stroke="#fff" stroke-width="0.1"/><line x1="-2" y1="0" x2="2" y2="0" transform="translate(170 254)" fill="none" stroke="#fff" stroke-width="0.1"/><line x1="-2" y1="0" x2="2" y2="0" transform="translate(170 256)" fill="none" stroke="#fff" stroke-width="0.1"/><line x1="-2" y1="0" x2="2" y2="0" transform="translate(170 258)" fill="none" stroke="#fff" stroke-width="0.1"/></g><g transform="translate(15.49958 0.332825)"><rect width="4" height="10" rx="0" ry="0" transform="translate(168 250)" fill="#09ff00" stroke="#fff" stroke-width="0.1"/><line x1="-2" y1="0" x2="2" y2="0" transform="translate(170 252)" fill="none" stroke="#fff" stroke-width="0.1"/><line x1="-2" y1="0" x2="2" y2="0" transform="translate(170 254)" fill="none" stroke="#fff" stroke-width="0.1"/><line x1="-2" y1="0" x2="2" y2="0" transform="translate(170 256)" fill="none" stroke="#fff" stroke-width="0.1"/><line x1="-2" y1="0" x2="2" y2="0" transform="translate(170 258)" fill="none" stroke="#fff" stroke-width="0.1"/></g></g><g transform="translate(0 28)"><g transform="translate(-.50042 0.332825)"><rect width="4" height="10" rx="0" ry="0" transform="translate(168 250)" fill="#ff00c6" stroke="#fff" stroke-width="0.1"/><line x1="-2" y1="0" x2="2" y2="0" transform="translate(170 252)" fill="none" stroke="#fff" stroke-width="0.1"/><line x1="-2" y1="0" x2="2" y2="0" transform="translate(170 254)" fill="none" stroke="#fff" stroke-width="0.1"/><line x1="-2" y1="0" x2="2" y2="0" transform="translate(170 256)" fill="none" stroke="#fff" stroke-width="0.1"/><line x1="-2" y1="0" x2="2" y2="0" transform="translate(170 258)" fill="none" stroke="#fff" stroke-width="0.1"/></g><g transform="translate(3.49958 0.332825)"><rect width="4" height="10" rx="0" ry="0" transform="translate(168 250)" fill="#f00" stroke="#fff" stroke-width="0.1"/><line x1="-2" y1="0" x2="2" y2="0" transform="translate(170 252)" fill="none" stroke="#fff" stroke-width="0.1"/><line x1="-2" y1="0" x2="2" y2="0" transform="translate(170 254)" fill="none" stroke="#fff" stroke-width="0.1"/><line x1="-2" y1="0" x2="2" y2="0" transform="translate(170 256)" fill="none" stroke="#fff" stroke-width="0.1"/><line x1="-2" y1="0" x2="2" y2="0" transform="translate(170 258)" fill="none" stroke="#fff" stroke-width="0.1"/></g><g transform="translate(7.49958 0.332825)"><rect width="4" height="10" rx="0" ry="0" transform="translate(168 250)" fill="#16ff00" stroke="#fff" stroke-width="0.1"/><line x1="-2" y1="0" x2="2" y2="0" transform="translate(170 252)" fill="none" stroke="#fff" stroke-width="0.1"/><line x1="-2" y1="0" x2="2" y2="0" transform="translate(170 254)" fill="none" stroke="#fff" stroke-width="0.1"/><line x1="-2" y1="0" x2="2" y2="0" transform="translate(170 256)" fill="none" stroke="#fff" stroke-width="0.1"/><line x1="-2" y1="0" x2="2" y2="0" transform="translate(170 258)" fill="none" stroke="#fff" stroke-width="0.1"/></g><g transform="translate(11.49958 0.332825)"><rect width="4" height="10" rx="0" ry="0" transform="translate(168 250)" fill="#ff6a00" stroke="#fff" stroke-width="0.1"/><line x1="-2" y1="0" x2="2" y2="0" transform="translate(170 252)" fill="none" stroke="#fff" stroke-width="0.1"/><line x1="-2" y1="0" x2="2" y2="0" transform="translate(170 254)" fill="none" stroke="#fff" stroke-width="0.1"/><line x1="-2" y1="0" x2="2" y2="0" transform="translate(170 256)" fill="none" stroke="#fff" stroke-width="0.1"/><line x1="-2" y1="0" x2="2" y2="0" transform="translate(170 258)" fill="none" stroke="#fff" stroke-width="0.1"/></g><g transform="translate(15.49958 0.332825)"><rect width="4" height="10" rx="0" ry="0" transform="translate(168 250)" fill="#0200ff" stroke="#fff" stroke-width="0.1"/><line x1="-2" y1="0" x2="2" y2="0" transform="translate(170 252)" fill="none" stroke="#fff" stroke-width="0.1"/><line x1="-2" y1="0" x2="2" y2="0" transform="translate(170 254)" fill="none" stroke="#fff" stroke-width="0.1"/><line x1="-2" y1="0" x2="2" y2="0" transform="translate(170 256)" fill="none" stroke="#fff" stroke-width="0.1"/><line x1="-2" y1="0" x2="2" y2="0" transform="translate(170 258)" fill="none" stroke="#fff" stroke-width="0.1"/></g></g><rect width="3" height="2" rx="0" ry="0" transform="translate(175.99958 235.947979)" fill="#fff" stroke="#000" stroke-width="0.2" stroke-linejoin="round"/><rect width="3" height="2" rx="0" ry="0" transform="translate(171.99958 240)" fill="#fff" stroke="#000" stroke-width="0.2" stroke-linejoin="round"/><rect width="3" height="2" rx="0" ry="0" transform="translate(179.99958 240)" fill="#fff" stroke="#000" stroke-width="0.2" stroke-linejoin="round"/><rect width="4" height="6" rx="0" ry="0" transform="translate(175.49958 296.581472)" fill="#fff" stroke-width="0"/><ellipse rx="1.061994" ry="1.061994" transform="translate(177.49958 298.094188)" stroke-width="0"/><ellipse rx="1.061994" ry="1.061994" transform="translate(177.49958 301.061994)" stroke-width="0"/></g></svg>